<svg width="669" height="253" viewBox="0 0 669 253" fill="none" xmlns="http://www.w3.org/2000/svg"><g clip-path="url(#a)" fill="#FF963C"><path d="M94.07 68.283h56.194v46.23h21.4V.163h-21.4v48.19H94.069V.163H72.506v114.35h21.563z"/><path fill-rule="evenodd" clip-rule="evenodd" d="M230.728 116.474c12.251 0 26.137-4.249 34.631-13.069l-12.742-12.579c-4.574 4.738-14.212 7.514-21.563 7.514-14.048 0-22.706-7.187-24.013-17.152h62.892c3.104-33.161-13.722-49.824-40.676-49.824-26.137 0-42.799 17.643-42.799 42.146 0 25.81 16.499 42.964 44.27 42.964m-.817-67.467c11.435 0 19.603 5.227 20.91 15.682h-43.453c2.94-10.455 11.761-15.682 22.543-15.682M324.69 116.8c8.984-.163 21.563-4.738 26.137-14.212l.98 11.762h18.786V33.815H351.48l-.653 11.108c-4.574-8.004-14.865-13.069-25.647-13.069-23.523-.163-41.983 14.376-41.983 42.147 0 28.26 17.643 42.962 41.493 42.799m2.286-67.14c31.365 0 31.365 48.844 0 48.844-13.231 0-23.849-9.148-23.849-24.503s10.618-24.34 23.849-24.34"/><path d="M387.281.163h19.766v114.186h-19.766zm125.013 73.021c0-12.089 8.167-22.053 19.929-22.053 10.618 0 18.296 6.207 18.296 20.91v42.309h19.929V71.877c0-23.687-10.128-39.206-32.998-39.206-9.148 0-17.969 2.778-25.156 12.089V0h-19.93v114.35h19.93zm-76.556 12.741c0 20.094 11.435 30.058 28.914 29.405 6.044-.163 10.781-1.144 16.499-3.431l-5.554-16.989c-2.94 1.47-6.535 2.45-9.638 2.45-6.208 0-10.455-3.757-10.455-11.435V51.131h22.38V33.978h-22.217V14.339h-19.929v19.639h-15.029v17.153h15.029z"/><path d="m647.206 31.853-22.576 52.77-22.479-52.77h-21.78l33.346 78.278-46.845 109.498-81.994-72.424L0 147.248v20.033l477.353.009 96.72 85.71L669 31.853z"/></g><defs><clipPath id="a"><path fill="#fff" d="M0 0h669v253H0z"/></clipPath></defs></svg>